<svg xmlns="http://www.w3.org/2000/svg" viewBox="0 0 108 88">
<path d="M 36.5,0.0 L 37.0,0.5 L 38.0,0.5 L 39.0,0.5 L 39.5,1.0 L 40.0,1.5 L 40.5,2.0 L 41.0,2.5 L 41.5,3.0 L 42.0,3.5 L 42.5,4.0 L 43.0,4.5 L 43.5,5.0 L 43.5,6.0 L 44.0,6.5 L 44.5,7.0 L 44.5,8.0 L 45.0,8.5 L 45.5,9.0 L 45.5,10.0 L 45.5,11.0 L 45.5,12.0 L 46.0,12.5 L 46.5,13.0 L 46.5,14.0 L 46.5,15.0 L 46.0,15.5 L 45.5,16.0 L 45.5,17.0 L 45.5,18.0 L 45.5,19.0 L 45.5,20.0 L 45.0,20.5 L 44.5,21.0 L 44.5,22.0 L 45.0,22.5 L 46.0,22.5 L 47.0,22.5 L 48.0,22.5 L 49.0,22.5 L 49.5,23.0 L 50.0,23.5 L 50.5,23.0 L 50.5,22.0 L 51.0,21.5 L 51.5,21.0 L 51.5,20.0 L 51.5,19.0 L 51.5,18.0 L 51.5,17.0 L 52.0,16.5 L 52.5,16.0 L 52.5,15.0 L 52.5,14.0 L 53.0,13.5 L 53.5,13.0 L 53.5,12.0 L 53.5,11.0 L 54.0,10.5 L 54.5,10.0 L 54.5,9.0 L 54.5,8.0 L 55.0,7.5 L 55.5,7.0 L 55.5,6.0 L 55.5,5.0 L 55.5,4.0 L 56.0,3.5 L 56.5,3.0 L 56.5,2.0 L 56.5,1.0 L 57.0,0.5 L 57.5,0.0 Z" fill="#000000"/>
<path d="M 91.5,0.0 L 92.0,0.5 L 93.0,0.5 L 94.0,0.5 L 95.0,0.5 L 96.0,0.5 L 97.0,0.5 L 97.5,1.0 L 98.0,1.5 L 99.0,1.5 L 99.5,2.0 L 100.0,2.5 L 100.5,3.0 L 101.0,3.5 L 102.0,3.5 L 102.5,4.0 L 103.0,4.5 L 103.5,5.0 L 104.0,5.5 L 104.5,6.0 L 105.0,6.5 L 105.5,7.0 L 106.0,7.5 L 106.5,8.0 L 106.5,9.0 L 107.0,9.5 Z" fill="#000000"/>
<path d="M 32.5,87.0 L 32.0,86.5 L 31.5,86.0 L 31.5,85.0 L 31.5,84.0 L 32.0,83.5 L 32.5,83.0 L 32.5,82.0 L 32.5,81.0 L 33.0,80.5 L 33.5,80.0 L 33.5,79.0 L 33.5,78.0 L 34.0,77.5 L 34.5,77.0 L 34.5,76.0 L 34.5,75.0 L 34.5,74.0 L 35.0,73.5 L 35.5,73.0 L 35.5,72.0 L 35.5,71.0 L 36.0,70.5 L 36.5,70.0 L 36.5,69.0 L 36.5,68.0 L 37.0,67.5 L 37.5,67.0 L 37.5,66.0 L 37.5,65.0 L 38.0,64.5 L 38.5,64.0 L 38.5,63.0 L 38.5,62.0 L 38.5,61.0 L 38.5,60.0 L 39.0,59.5 L 39.5,59.0 L 39.5,58.0 L 39.5,57.0 L 40.0,56.5 L 40.5,56.0 L 40.5,55.0 L 40.5,54.0 L 41.0,53.5 L 41.5,53.0 L 41.0,52.5 L 40.0,52.5 L 39.0,52.5 L 38.5,52.0 L 38.0,51.5 L 37.0,51.5 L 36.5,51.0 L 36.0,50.5 L 35.5,50.0 L 35.0,49.5 L 34.5,49.0 L 34.0,48.5 L 33.5,48.0 L 33.0,47.5 L 32.5,47.0 L 32.5,46.0 L 32.0,45.5 L 31.5,45.0 L 31.5,44.0 L 31.0,43.5 L 30.5,43.0 L 30.5,42.0 L 30.5,41.0 L 30.5,40.0 L 30.5,39.0 L 30.5,38.0 L 30.5,37.0 L 30.5,36.0 L 30.5,35.0 L 30.0,34.5 L 29.5,35.0 L 29.0,35.5 L 28.0,35.5 L 27.0,35.5 L 26.0,35.5 L 25.0,35.5 L 24.0,35.5 L 23.0,35.5 L 22.0,35.5 L 21.0,35.5 L 20.0,35.5 L 19.0,35.5 L 18.0,35.5 L 17.0,35.5 L 16.0,35.5 L 15.0,35.5 L 14.0,35.5 L 13.0,35.5 L 12.0,35.5 L 11.0,35.5 L 10.0,35.5 L 9.0,35.5 L 8.0,35.5 L 7.0,35.5 L 6.0,35.5 L 5.5,35.0 L 5.5,34.0 L 5.5,33.0 L 5.5,32.0 L 5.5,31.0 L 6.0,30.5 L 6.5,30.0 L 6.5,29.0 L 6.5,28.0 L 6.5,27.0 L 6.5,26.0 L 7.0,25.5 L 7.5,25.0 L 7.5,24.0 L 7.5,23.0 L 7.5,22.0 L 7.5,21.0 L 7.5,20.0 L 8.0,19.5 L 8.5,19.0 L 8.5,18.0 L 8.5,17.0 L 8.5,16.0 L 8.5,15.0 L 9.0,14.5 L 9.5,14.0 L 9.5,13.0 L 9.5,12.0 L 10.0,11.5 L 10.5,11.0 L 11.0,10.5 L 11.5,10.0 L 11.5,9.0 L 12.0,8.5 L 12.5,8.0 L 13.0,7.5 L 13.5,7.0 L 13.5,6.0 L 13.0,5.5 L 12.0,5.5 L 11.0,5.5 L 10.0,5.5 L 9.0,5.5 L 8.0,5.5 L 7.0,5.5 L 6.0,5.5 L 5.0,5.5 L 4.0,5.5 L 3.0,5.5 L 2.0,5.5 L 1.5,5.0 L 1.0,4.5 L 0.5,4.0 L 0.0,3.5 Z" fill="#000000"/>
<path d="M 28.5,21.0 L 29.0,20.5 L 29.5,20.0 L 30.0,19.5 L 30.5,19.0 L 30.5,18.0 L 31.0,17.5 L 31.5,17.0 L 31.5,16.0 L 31.5,15.0 L 31.0,14.5 L 30.5,14.0 L 30.0,13.5 L 29.5,13.0 L 29.0,12.5 L 28.0,12.5 L 27.0,12.5 L 26.5,13.0 L 26.0,13.5 L 25.0,13.5 L 24.5,14.0 L 24.0,14.5 L 23.5,15.0 L 23.0,15.5 L 22.5,16.0 L 22.5,17.0 L 22.5,18.0 L 22.5,19.0 L 22.0,19.5 L 21.5,20.0 L 21.5,21.0 L 22.0,21.5 L 23.0,21.5 L 24.0,21.5 L 25.0,21.5 L 26.0,21.5 L 27.0,21.5 L 28.0,21.5 L 28.5,21.0 Z" fill="#000000"/>
<path d="M 107.0,18.5 L 106.5,19.0 L 106.5,20.0 L 106.0,20.5 L 105.5,21.0 L 105.5,22.0 L 105.0,22.5 L 104.5,23.0 L 104.0,23.5 L 103.5,24.0 L 103.0,24.5 L 102.5,25.0 L 102.0,25.5 L 101.5,26.0 L 101.0,26.5 L 100.0,26.5 L 99.5,27.0 L 99.0,27.5 L 98.5,28.0 L 98.0,28.5 L 97.5,29.0 L 97.0,29.5 L 96.0,29.5 L 95.5,30.0 L 95.0,30.5 L 94.0,30.5 L 93.5,31.0 L 93.0,31.5 L 92.5,32.0 L 93.0,32.5 L 94.0,32.5 L 94.5,33.0 L 95.0,33.5 L 96.0,33.5 L 96.5,34.0 L 97.0,34.5 L 98.0,34.5 L 98.5,35.0 L 99.0,35.5 L 99.5,36.0 L 100.0,36.5 L 100.5,37.0 L 101.0,37.5 L 101.5,38.0 L 102.0,38.5 L 102.5,39.0 L 103.0,39.5 L 103.5,40.0 L 103.5,41.0 L 104.0,41.5 L 104.5,42.0 L 104.5,43.0 L 104.5,44.0 L 105.0,44.5 L 105.5,45.0 L 105.5,46.0 L 105.5,47.0 L 105.5,48.0 L 105.5,49.0 L 105.5,50.0 L 105.0,50.5 L 104.5,51.0 L 104.5,52.0 L 104.5,53.0 L 104.0,53.5 L 103.5,54.0 L 103.5,55.0 L 103.5,56.0 L 103.0,56.5 L 102.5,57.0 L 102.5,58.0 L 102.0,58.5 L 101.5,59.0 L 101.5,60.0 L 101.0,60.5 L 100.5,61.0 L 100.0,61.5 L 99.5,62.0 L 99.5,63.0 L 99.0,63.5 L 98.5,64.0 L 98.0,64.5 L 97.5,65.0 L 97.0,65.5 L 96.5,66.0 L 96.0,66.5 L 95.5,67.0 L 95.0,67.5 L 94.5,68.0 L 94.0,68.5 L 93.5,69.0 L 93.0,69.5 L 92.5,70.0 L 92.0,70.5 L 91.0,70.5 L 90.5,71.0 L 90.0,71.5 L 89.5,72.0 L 89.0,72.5 L 88.5,73.0 L 88.0,73.5 L 87.0,73.5 L 86.5,74.0 L 86.0,74.5 L 85.5,75.0 L 85.0,75.5 L 84.5,76.0 L 84.0,76.5 L 83.0,76.5 L 82.5,77.0 L 82.0,77.5 L 81.0,77.5 L 80.5,78.0 L 80.0,78.5 L 79.0,78.5 L 78.5,79.0 L 78.0,79.5 L 77.0,79.5 L 76.5,80.0 L 76.0,80.5 L 75.0,80.5 L 74.5,81.0 L 74.0,81.5 L 73.0,81.5 L 72.5,82.0 L 72.0,82.5 L 71.0,82.5 L 70.0,82.5 L 69.5,83.0 L 69.0,83.5 L 68.0,83.5 L 67.0,83.5 L 66.5,84.0 L 66.0,84.5 L 65.0,84.5 L 64.5,85.0 L 64.0,85.5 L 63.0,85.5 L 62.0,85.5 L 61.0,85.5 L 60.5,86.0 L 60.0,86.5 L 59.0,86.5 L 58.0,86.5 L 57.0,86.5 L 56.0,86.5 L 55.0,86.5 L 54.0,86.5 L 53.5,87.0 Z" fill="#000000"/>
<path d="M 71.5,55.0 L 72.0,54.5 L 73.0,54.5 L 74.0,54.5 L 75.0,54.5 L 76.0,54.5 L 77.0,54.5 L 78.0,54.5 L 79.0,54.5 L 80.0,54.5 L 80.5,54.0 L 81.0,53.5 L 82.0,53.5 L 83.0,53.5 L 84.0,53.5 L 85.0,53.5 L 86.0,53.5 L 87.0,53.5 L 88.0,53.5 L 88.5,53.0 L 89.0,52.5 L 90.0,52.5 L 91.0,52.5 L 92.0,52.5 L 93.0,52.5 L 93.5,52.0 L 94.0,51.5 L 95.0,51.5 L 95.5,51.0 L 96.0,50.5 L 96.5,50.0 L 97.0,49.5 L 97.5,49.0 L 97.5,48.0 L 97.5,47.0 L 97.5,46.0 L 97.5,45.0 L 97.5,44.0 L 97.0,43.5 L 96.0,43.5 L 95.5,44.0 L 95.0,44.5 L 94.0,44.5 L 93.0,44.5 L 92.0,44.5 L 91.5,45.0 L 91.0,45.5 L 90.0,45.5 L 89.0,45.5 L 88.0,45.5 L 87.0,45.5 L 86.0,45.5 L 85.5,46.0 L 85.0,46.5 L 84.0,46.5 L 83.0,46.5 L 82.0,46.5 L 81.0,46.5 L 80.0,46.5 L 79.0,46.5 L 78.0,46.5 L 77.5,47.0 L 77.0,47.5 L 76.0,47.5 L 75.0,47.5 L 74.0,47.5 L 73.0,47.5 L 72.0,47.5 L 71.0,47.5 L 70.0,47.5 L 69.0,47.5 L 68.0,47.5 L 67.0,47.5 L 66.0,47.5 L 65.0,47.5 L 64.0,47.5 L 63.0,47.5 L 62.5,48.0 L 62.0,48.5 L 61.0,48.5 L 60.0,48.5 L 59.0,48.5 L 58.0,48.5 L 57.0,48.5 L 56.0,48.5 L 55.0,48.5 L 54.0,48.5 L 53.5,48.0 L 53.0,47.5 L 52.5,48.0 L 52.0,48.5 L 51.5,49.0 L 51.5,50.0 L 51.5,51.0 L 51.5,52.0 L 51.0,52.5 L 50.5,53.0 L 50.5,54.0 L 50.5,55.0 L 51.0,55.5 L 52.0,55.5 L 53.0,55.5 L 54.0,55.5 L 55.0,55.5 L 56.0,55.5 L 57.0,55.5 L 58.0,55.5 L 59.0,55.5 L 60.0,55.5 L 61.0,55.5 L 62.0,55.5 L 63.0,55.5 L 64.0,55.5 L 65.0,55.5 L 66.0,55.5 L 67.0,55.5 L 68.0,55.5 L 69.0,55.5 L 70.0,55.5 L 71.0,55.5 L 71.5,55.0 Z" fill="#000000"/>
<path d="M 62.5,76.0 L 63.0,75.5 L 64.0,75.5 L 65.0,75.5 L 66.0,75.5 L 67.0,75.5 L 67.5,75.0 L 68.0,74.5 L 69.0,74.5 L 70.0,74.5 L 71.0,74.5 L 71.5,74.0 L 72.0,73.5 L 73.0,73.5 L 73.5,73.0 L 74.0,72.5 L 75.0,72.5 L 76.0,72.5 L 76.5,72.0 L 77.0,71.5 L 77.5,71.0 L 78.0,70.5 L 79.0,70.5 L 79.5,70.0 L 80.0,69.5 L 81.0,69.5 L 81.5,69.0 L 82.0,68.5 L 82.5,68.0 L 82.0,67.5 L 81.0,67.5 L 80.0,67.5 L 79.0,67.5 L 78.0,67.5 L 77.5,68.0 L 77.0,68.5 L 76.0,68.5 L 75.0,68.5 L 74.0,68.5 L 73.0,68.5 L 72.0,68.5 L 71.0,68.5 L 70.0,68.5 L 69.0,68.5 L 68.0,68.5 L 67.0,68.5 L 66.0,68.5 L 65.5,69.0 L 65.0,69.5 L 64.0,69.5 L 63.0,69.5 L 62.0,69.5 L 61.0,69.5 L 60.0,69.5 L 59.0,69.5 L 58.0,69.5 L 57.0,69.5 L 56.0,69.5 L 55.0,69.5 L 54.0,69.5 L 53.0,69.5 L 52.0,69.5 L 51.0,69.5 L 50.0,69.5 L 49.0,69.5 L 48.0,69.5 L 47.0,69.5 L 46.0,69.5 L 45.5,70.0 L 45.5,71.0 L 45.5,72.0 L 45.5,73.0 L 45.0,73.5 L 44.5,74.0 L 44.5,75.0 L 44.5,76.0 L 45.0,76.5 L 46.0,76.5 L 47.0,76.5 L 48.0,76.5 L 49.0,76.5 L 50.0,76.5 L 51.0,76.5 L 52.0,76.5 L 53.0,76.5 L 54.0,76.5 L 55.0,76.5 L 56.0,76.5 L 57.0,76.5 L 58.0,76.5 L 59.0,76.5 L 60.0,76.5 L 61.0,76.5 L 62.0,76.5 L 62.5,76.0 Z" fill="#000000"/>
<path d="M 71.0,55.5 L 70.0,55.5 L 69.0,55.5 L 68.0,55.5 L 67.0,55.5 L 66.0,55.5 L 65.0,55.5 L 64.0,55.5 L 63.0,55.5 L 62.0,55.5 L 61.0,55.5 L 60.0,55.5 L 59.0,55.5 L 58.0,55.5 L 57.0,55.5 L 56.0,55.5 L 55.0,55.5 L 54.0,55.5 L 53.0,55.5 L 52.0,55.5 L 51.0,55.5 L 50.5,55.0 L 50.5,54.0 L 50.5,53.0 L 51.0,52.5 L 51.5,52.0 L 51.5,51.0 L 51.5,50.0 L 51.5,49.0 L 52.0,48.5 L 52.5,48.0 L 53.0,47.5 L 53.5,48.0 L 54.0,48.5 L 55.0,48.5 L 56.0,48.5 L 57.0,48.5 L 58.0,48.5 L 59.0,48.5 L 60.0,48.5 L 61.0,48.5 L 62.0,48.5 L 62.5,48.0 L 63.0,47.5 L 64.0,47.5 L 65.0,47.5 L 66.0,47.5 L 67.0,47.5 L 68.0,47.5 L 69.0,47.5 L 70.0,47.5 L 71.0,47.5 L 72.0,47.5 L 73.0,47.5 L 74.0,47.5 L 75.0,47.5 L 76.0,47.5 L 77.0,47.5 L 77.5,47.0 L 78.0,46.5 L 79.0,46.5 L 80.0,46.5 L 81.0,46.5 L 82.0,46.5 L 83.0,46.5 L 84.0,46.5 L 85.0,46.5 L 85.5,46.0 L 86.0,45.5 L 87.0,45.5 L 88.0,45.5 L 89.0,45.5 L 90.0,45.5 L 91.0,45.5 L 91.5,45.0 L 92.0,44.5 L 93.0,44.5 L 94.0,44.5 L 95.0,44.5 L 95.5,44.0 L 96.0,43.5 L 97.0,43.5 L 97.5,44.0 L 97.5,45.0 L 97.5,46.0 L 97.5,47.0 L 97.5,48.0 L 97.5,49.0 L 97.0,49.5 L 96.5,50.0 L 96.0,50.5 L 95.5,51.0 L 95.0,51.5 L 94.0,51.5 L 93.5,52.0 L 93.0,52.5 L 92.0,52.5 L 91.0,52.5 L 90.0,52.5 L 89.0,52.5 L 88.5,53.0 L 88.0,53.5 L 87.0,53.5 L 86.0,53.5 L 85.0,53.5 L 84.0,53.5 L 83.0,53.5 L 82.0,53.5 L 81.0,53.5 L 80.5,54.0 L 80.0,54.5 L 79.0,54.5 L 78.0,54.5 L 77.0,54.5 L 76.0,54.5 L 75.0,54.5 L 74.0,54.5 L 73.0,54.5 L 72.0,54.5 L 71.5,55.0 L 71.0,55.5 Z" fill="#FFCB05"/>
<path d="M 62.0,76.5 L 61.0,76.5 L 60.0,76.5 L 59.0,76.5 L 58.0,76.5 L 57.0,76.5 L 56.0,76.5 L 55.0,76.5 L 54.0,76.5 L 53.0,76.5 L 52.0,76.5 L 51.0,76.5 L 50.0,76.5 L 49.0,76.5 L 48.0,76.5 L 47.0,76.5 L 46.0,76.5 L 45.0,76.5 L 44.5,76.0 L 44.5,75.0 L 44.5,74.0 L 45.0,73.5 L 45.5,73.0 L 45.5,72.0 L 45.5,71.0 L 45.5,70.0 L 46.0,69.5 L 47.0,69.5 L 48.0,69.5 L 49.0,69.5 L 50.0,69.5 L 51.0,69.5 L 52.0,69.5 L 53.0,69.5 L 54.0,69.5 L 55.0,69.5 L 56.0,69.5 L 57.0,69.5 L 58.0,69.5 L 59.0,69.5 L 60.0,69.5 L 61.0,69.5 L 62.0,69.5 L 63.0,69.5 L 64.0,69.5 L 65.0,69.5 L 65.5,69.0 L 66.0,68.5 L 67.0,68.5 L 68.0,68.5 L 69.0,68.5 L 70.0,68.5 L 71.0,68.5 L 72.0,68.5 L 73.0,68.5 L 74.0,68.5 L 75.0,68.5 L 76.0,68.5 L 77.0,68.5 L 77.5,68.0 L 78.0,67.5 L 79.0,67.5 L 80.0,67.5 L 81.0,67.5 L 82.0,67.5 L 82.5,68.0 L 82.0,68.5 L 81.5,69.0 L 81.0,69.5 L 80.0,69.5 L 79.5,70.0 L 79.0,70.5 L 78.0,70.5 L 77.5,71.0 L 77.0,71.5 L 76.5,72.0 L 76.0,72.5 L 75.0,72.5 L 74.0,72.5 L 73.5,73.0 L 73.0,73.5 L 72.0,73.5 L 71.5,74.0 L 71.0,74.5 L 70.0,74.5 L 69.0,74.5 L 68.0,74.5 L 67.5,75.0 L 67.0,75.5 L 66.0,75.5 L 65.0,75.5 L 64.0,75.5 L 63.0,75.5 L 62.5,76.0 L 62.0,76.5 Z" fill="#FFCB05"/>
</svg>