<svg width="108" height="88" version="1.1" xmlns="http://www.w3.org/2000/svg" desc="Created with imagetracer.js version 1.2.6" ><path fill="rgb(250,250,250)" stroke="rgb(250,250,250)" stroke-width="1" opacity="0.996078431372549" d="M 65.5 8 L 83.5 8 L 93.5 10 L 99 13 L 96.5 19 L 78.5 27 L 58 30 L 63 11.5 L 65.5 8 Z " /><path fill="rgb(0,0,0)" stroke="rgb(0,0,0)" stroke-width="1" opacity="0.19607843137254902" d="M 59.5 0 L 62 0.5 L 59.5 1 L 59.5 0 Z " /><path fill="rgb(0,0,0)" stroke="rgb(0,0,0)" stroke-width="1" opacity="0.19607843137254902" d="M 89.5 0 L 92 0.5 L 89.5 1 L 89.5 0 Z " /><path fill="rgb(0,0,0)" stroke="rgb(0,0,0)" stroke-width="1" opacity="0.19607843137254902" d="M 38.5 1 L 44 5.5 L 39.5 2 L 38.5 1 Z " /><path fill="rgb(0,0,0)" stroke="rgb(0,0,0)" stroke-width="1" opacity="0.19607843137254902" d="M 0.5 2 L 2.5 5 L 16 5.5 L 12.5 10 L 14 7.5 L 13.5 6 L 2.5 6 Q -1.1 4.9 0.5 2 Z " /><path fill="rgb(0,0,0)" stroke="rgb(0,0,0)" stroke-width="1" opacity="0.19607843137254902" d="M 98.5 2 L 101 3.5 L 99.5 3 L 98.5 2 Z " /><path fill="rgb(0,0,0)" stroke="rgb(0,0,0)" stroke-width="1" opacity="0.19607843137254902" d="M 102.5 4 L 108 11.5 L 107 11.5 L 102.5 4 Z " /><path fill="rgb(0,0,0)" stroke="rgb(0,0,0)" stroke-width="1" opacity="0.19607843137254902" d="M 45.5 9 L 46 11.5 L 45 11.5 L 45.5 9 Z " /><path fill="rgb(0,0,0)" stroke="rgb(0,0,0)" stroke-width="1" opacity="0.19607843137254902" d="M 11.5 11 L 11 12.5 L 10.5 14 L 10 12.5 L 11.5 11 Z " /><path fill="rgb(0,0,0)" stroke="rgb(0,0,0)" stroke-width="1" opacity="0.19607843137254902" d="M 25.5 13 L 27 13.5 L 23.5 16 L 25.5 13 Z " /><path fill="rgb(0,0,0)" stroke="rgb(0,0,0)" stroke-width="1" opacity="0.19607843137254902" d="M 30.5 13 Q 33.5 13.5 33 17.5 L 29.5 22 L 31 19.5 L 32 15.5 L 30.5 13 Z " /><path fill="rgb(0,0,0)" stroke="rgb(0,0,0)" stroke-width="1" opacity="0.19607843137254902" d="M 46.5 13 L 47 15.5 L 46 15.5 L 46.5 13 Z " /><path fill="rgb(0,0,0)" stroke="rgb(0,0,0)" stroke-width="1" opacity="0.19607843137254902" d="M 53.5 14 L 54 16.5 L 52.5 20 L 52 17.5 L 53.5 14 Z " /><path fill="rgb(0,0,0)" stroke="rgb(0,0,0)" stroke-width="1" opacity="0.19607843137254902" d="M 9.5 15 L 10 18.5 L 9 18.5 L 9.5 15 Z " /><path fill="rgb(0,0,0)" stroke="rgb(0,0,0)" stroke-width="1" opacity="0.19607843137254902" d="M 22.5 17 L 23 19.5 L 22 19.5 L 22.5 17 Z " /><path fill="rgb(0,0,0)" stroke="rgb(0,0,0)" stroke-width="1" opacity="0.19607843137254902" d="M 45.5 17 L 46 20.5 L 45 23 L 49 23.5 L 44 24 L 45.5 17 Z " /><path fill="rgb(0,0,0)" stroke="rgb(0,0,0)" stroke-width="1" opacity="0.19607843137254902" d="M 8.5 20 L 9 23.5 L 8 23.5 L 8.5 20 Z " /><path fill="rgb(0,0,0)" stroke="rgb(0,0,0)" stroke-width="1" opacity="0.19607843137254902" d="M 106.5 20 L 106 21.5 L 101.5 27 L 105 22.5 L 106.5 20 Z " /><path fill="rgb(0,0,0)" stroke="rgb(0,0,0)" stroke-width="1" opacity="0.19607843137254902" d="M 22.5 22 L 28 22.5 L 22.5 23 L 22.5 22 Z " /><path fill="rgb(0,0,0)" stroke="rgb(0,0,0)" stroke-width="1" opacity="0.19607843137254902" d="M 7.5 27 L 8 29.5 L 7 29.5 L 7.5 27 Z " /><path fill="rgb(0,0,0)" stroke="rgb(0,0,0)" stroke-width="1" opacity="0.19607843137254902" d="M 99.5 27 L 97.5 30 L 95.5 31 L 96.5 29 L 99.5 27 Z " /><path fill="rgb(0,0,0)" stroke="rgb(0,0,0)" stroke-width="1" opacity="0.19607843137254902" d="M 6.5 31 L 7 35.5 L 6 35.5 L 6.5 31 Z " /><path fill="rgb(0,0,0)" stroke="rgb(0,0,0)" stroke-width="1" opacity="0.19607843137254902" d="M 93.5 31 L 93.5 33 L 95 33.5 L 93.5 34 L 91 32.5 L 93.5 31 Z " /><path fill="rgb(0,0,0)" stroke="rgb(0,0,0)" stroke-width="1" opacity="0.19607843137254902" d="M 31.5 34 L 32 36.5 L 31 36.5 L 31.5 34 Z " /><path fill="rgb(0,0,0)" stroke="rgb(0,0,0)" stroke-width="1" opacity="0.19607843137254902" d="M 26.5 35 L 30 35.5 L 26.5 36 L 26.5 35 Z " /><path fill="rgb(0,0,0)" stroke="rgb(0,0,0)" stroke-width="1" opacity="0.19607843137254902" d="M 98.5 35 L 103.5 41 L 98.5 35 Z " /><path fill="rgb(0,0,0)" stroke="rgb(0,0,0)" stroke-width="1" opacity="0.19607843137254902" d="M 31.5 40 Q 32.4 47.6 37.5 51 L 41 52.5 L 39.5 53 L 33 47.5 Q 30 44.8 31.5 40 Z " /><path fill="rgb(0,0,0)" stroke="rgb(0,0,0)" stroke-width="1" opacity="0.19607843137254902" d="M 105.5 46 L 106 50.5 L 105 50.5 L 105.5 46 Z " /><path fill="rgb(0,0,0)" stroke="rgb(0,0,0)" stroke-width="1" opacity="0.19607843137254902" d="M 41.5 54 L 42 56.5 L 41 56.5 L 41.5 54 Z " /><path fill="rgb(0,0,0)" stroke="rgb(0,0,0)" stroke-width="1" opacity="0.19607843137254902" d="M 102.5 58 L 102 59.5 L 99.5 63 L 101 60.5 L 102.5 58 Z " /><path fill="rgb(0,0,0)" stroke="rgb(0,0,0)" stroke-width="1" opacity="0.19607843137254902" d="M 98.5 64 L 93.5 70 L 98.5 64 Z " /><path fill="rgb(0,0,0)" stroke="rgb(0,0,0)" stroke-width="1" opacity="0.19607843137254902" d="M 91.5 70 L 88.5 74 L 91.5 70 Z " /><path fill="rgb(0,0,0)" stroke="rgb(0,0,0)" stroke-width="1" opacity="0.19607843137254902" d="M 36.5 71 L 37 73.5 L 35.5 77 L 35 74.5 L 36.5 71 Z " /><path fill="rgb(0,0,0)" stroke="rgb(0,0,0)" stroke-width="1" opacity="0.19607843137254902" d="M 86.5 74 L 84.5 77 L 80.5 79 L 81.5 77 L 86.5 74 Z " /><path fill="rgb(0,0,0)" stroke="rgb(0,0,0)" stroke-width="1" opacity="0.19607843137254902" d="M 75.5 80 L 77 80.5 L 71.5 83 L 71.5 82 L 75.5 80 Z " /><path fill="rgb(0,0,0)" stroke="rgb(0,0,0)" stroke-width="1" opacity="0.19607843137254902" d="M 65.5 84 L 67 84.5 L 57.5 87 L 57.5 86 L 65.5 84 Z " /><path fill="rgb(0,0,0)" stroke="rgb(0,0,0)" stroke-width="1" opacity="0.19607843137254902" d="M 32.5 85 L 33 87 L 35 87.5 L 33.5 88 L 32.5 85 Z " /><path fill="rgb(0,0,0)" stroke="rgb(0,0,0)" stroke-width="1" opacity="0.19607843137254902" d="M 51.5 87 L 54 87.5 L 51.5 88 L 51.5 87 Z " /><path fill="rgb(33,30,19)" stroke="rgb(33,30,19)" stroke-width="1" opacity="0.9921568627450981" d="M 66.5 7 L 83 7.5 L 66.5 8 L 66.5 7 Z " /><path fill="rgb(33,30,19)" stroke="rgb(33,30,19)" stroke-width="1" opacity="0.9921568627450981" d="M 97.5 11 Q 100.8 11.8 100 16.5 L 95 20.5 L 99 16.5 L 99 13.5 L 97.5 11 Z " /><path fill="rgb(33,30,19)" stroke="rgb(33,30,19)" stroke-width="1" opacity="0.9921568627450981" d="M 80.5 26 L 83 26.5 L 80.5 27 L 80.5 26 Z " /><path fill="rgb(33,30,19)" stroke="rgb(33,30,19)" stroke-width="1" opacity="0.9921568627450981" d="M 57.5 28 L 58 30 L 64 30.5 L 57 31 L 57.5 28 Z " /><path fill="rgb(33,30,19)" stroke="rgb(33,30,19)" stroke-width="1" opacity="0.9921568627450981" d="M 66.5 29 L 70 29.5 L 66.5 30 L 66.5 29 Z " /><path fill="rgb(33,30,19)" stroke="rgb(33,30,19)" stroke-width="1" opacity="0.9921568627450981" d="M 91.5 44 L 95 44.5 L 86.5 46 L 86.5 45 L 91.5 44 Z " /><path fill="rgb(33,30,19)" stroke="rgb(33,30,19)" stroke-width="1" opacity="0.9921568627450981" d="M 80.5 46 L 83 46.5 L 80.5 47 L 80.5 46 Z " /><path fill="rgb(33,30,19)" stroke="rgb(33,30,19)" stroke-width="1" opacity="0.9921568627450981" d="M 71.5 47 L 74 47.5 L 71.5 48 L 71.5 47 Z " /><path fill="rgb(33,30,19)" stroke="rgb(33,30,19)" stroke-width="1" opacity="0.9921568627450981" d="M 84.5 54 L 88 54.5 L 84.5 55 L 84.5 54 Z " /><path fill="rgb(33,30,19)" stroke="rgb(33,30,19)" stroke-width="1" opacity="0.9921568627450981" d="M 75.5 55 L 83 55.5 L 75.5 56 L 75.5 55 Z " /><path fill="rgb(33,30,19)" stroke="rgb(33,30,19)" stroke-width="1" opacity="0.9921568627450981" d="M 51.5 56 L 71 56.5 L 51.5 57 L 51.5 56 Z " /><path fill="rgb(33,30,19)" stroke="rgb(33,30,19)" stroke-width="1" opacity="0.9921568627450981" d="M 78.5 67 L 82 67.5 L 78.5 68 L 78.5 67 Z " /><path fill="rgb(33,30,19)" stroke="rgb(33,30,19)" stroke-width="1" opacity="0.9921568627450981" d="M 70.5 68 L 74 68.5 L 70.5 69 L 70.5 68 Z " /><path fill="rgb(33,30,19)" stroke="rgb(33,30,19)" stroke-width="1" opacity="0.9921568627450981" d="M 82.5 69 L 80.5 72 L 75.5 74 L 75.5 73 L 82.5 69 Z " /><path fill="rgb(33,30,19)" stroke="rgb(33,30,19)" stroke-width="1" opacity="0.9921568627450981" d="M 65.5 76 L 68 76.5 L 65.5 77 L 65.5 76 Z " /><path fill="rgb(33,30,19)" stroke="rgb(33,30,19)" stroke-width="1" opacity="0.9921568627450981" d="M 44.5 77 L 50 77.5 L 44.5 78 L 44.5 77 Z " /><path fill="rgb(33,30,19)" stroke="rgb(33,30,19)" stroke-width="1" opacity="0.9921568627450981" d="M 57.5 77 L 64 77.5 L 57.5 78 L 57.5 77 Z " /><path fill="rgb(0,0,0)" stroke="rgb(0,0,0)" stroke-width="1" opacity="0.996078431372549" d="M 0 0 L 36 0.5 L 1.5 1 L 0.5 2 L 0 0 Z " /><path fill="rgb(0,0,0)" stroke="rgb(0,0,0)" stroke-width="1" opacity="0.996078431372549" d="M 62.5 0 L 89 0.5 L 62.5 1 L 62.5 0 Z " /><path fill="rgb(0,0,0)" stroke="rgb(0,0,0)" stroke-width="1" opacity="0.996078431372549" d="M 58.5 1 L 59 2.5 L 57.5 5 L 57 3.5 L 58.5 1 Z " /><path fill="rgb(0,0,0)" stroke="rgb(0,0,0)" stroke-width="1" opacity="0.996078431372549" d="M 92.5 1 Q 101.9 2.1 106 8.5 L 107 10.5 L 104 8.5 L 101.5 5 L 92.5 2 L 92.5 1 Z " /><path fill="rgb(0,0,0)" stroke="rgb(0,0,0)" stroke-width="1" opacity="0.996078431372549" d="M 39.5 2 Q 44.4 4.1 45 10.5 L 44 10.5 L 41.5 5 L 39 3.5 L 39.5 2 Z " /><path fill="rgb(0,0,0)" stroke="rgb(0,0,0)" stroke-width="1" opacity="0.996078431372549" d="M 1.5 3 L 2.5 5 L 1.5 3 Z " /><path fill="rgb(0,0,0)" stroke="rgb(0,0,0)" stroke-width="1" opacity="0.996078431372549" d="M 16.5 5 L 17 6.5 L 13 10.5 L 10.5 17 L 10 14.5 L 16.5 5 Z " /><path fill="rgb(0,0,0)" stroke="rgb(0,0,0)" stroke-width="1" opacity="0.996078431372549" d="M 55.5 10 L 56 13.5 L 54.5 16 L 54 13.5 L 55.5 10 Z " /><path fill="rgb(0,0,0)" stroke="rgb(0,0,0)" stroke-width="1" opacity="0.996078431372549" d="M 29.5 12 L 34 15.5 L 30.5 23 L 28 22.5 L 32 19.5 L 33 15.5 L 29.5 12 Z " /><path fill="rgb(0,0,0)" stroke="rgb(0,0,0)" stroke-width="1" opacity="0.996078431372549" d="M 45.5 12 L 46 16.5 L 45 16.5 L 45.5 12 Z " /><path fill="rgb(0,0,0)" stroke="rgb(0,0,0)" stroke-width="1" opacity="0.996078431372549" d="M 24.5 13 L 23 15.5 L 21.5 23 L 21 16.5 L 22 14 L 24.5 13 Z " /><path fill="rgb(0,0,0)" stroke="rgb(0,0,0)" stroke-width="1" opacity="0.996078431372549" d="M 44.5 18 L 45 20.5 L 44 23.5 L 44.5 25 Q 41.5 25.9 43 21.5 L 44.5 18 Z " /><path fill="rgb(0,0,0)" stroke="rgb(0,0,0)" stroke-width="1" opacity="0.996078431372549" d="M 106.5 18 L 107 19.5 L 100.5 27 L 91 32.5 Q 99.9 34.6 104 41.5 L 103.5 43 L 100.5 39 Q 98.3 39.8 99 37.5 L 90 32.5 Q 89.2 29.9 92.5 31 L 104 22.5 L 106.5 18 Z " /><path fill="rgb(0,0,0)" stroke="rgb(0,0,0)" stroke-width="1" opacity="0.996078431372549" d="M 9.5 19 L 10 21.5 L 9 21.5 L 9.5 19 Z " /><path fill="rgb(0,0,0)" stroke="rgb(0,0,0)" stroke-width="1" opacity="0.996078431372549" d="M 8.5 24 L 9 29.5 L 8 35 L 26 35.5 L 7 36 L 8.5 24 Z " /><path fill="rgb(0,0,0)" stroke="rgb(0,0,0)" stroke-width="1" opacity="0.996078431372549" d="M 47.5 24 L 50 24.5 L 47.5 25 L 47.5 24 Z " /><path fill="rgb(0,0,0)" stroke="rgb(0,0,0)" stroke-width="1" opacity="0.996078431372549" d="M 31.5 33 Q 34.1 32.2 33 35.5 L 32 35.5 L 31.5 34 L 29.5 35 L 29.5 34 L 31.5 33 Z " /><path fill="rgb(0,0,0)" stroke="rgb(0,0,0)" stroke-width="1" opacity="0.996078431372549" d="M 31.5 37 L 32 39.5 L 31 39.5 L 31.5 37 Z " /><path fill="rgb(0,0,0)" stroke="rgb(0,0,0)" stroke-width="1" opacity="0.996078431372549" d="M 32.5 42 L 35 48 L 40 51.5 L 38.5 51 L 34 47.5 L 32.5 42 Z " /><path fill="rgb(0,0,0)" stroke="rgb(0,0,0)" stroke-width="1" opacity="0.996078431372549" d="M 99.5 44 L 100 48.5 L 99 48.5 L 99.5 44 Z " /><path fill="rgb(0,0,0)" stroke="rgb(0,0,0)" stroke-width="1" opacity="0.996078431372549" d="M 104.5 44 L 105 51.5 L 104 51.5 L 104.5 44 Z " /><path fill="rgb(0,0,0)" stroke="rgb(0,0,0)" stroke-width="1" opacity="0.996078431372549" d="M 41.5 52 Q 44.9 51.1 43 56.5 L 40.5 62 L 40 60.5 L 42 53.5 L 41.5 52 Z " /><path fill="rgb(0,0,0)" stroke="rgb(0,0,0)" stroke-width="1" opacity="0.996078431372549" d="M 71.5 56 L 76 56.5 L 71.5 57 L 71.5 56 Z " /><path fill="rgb(0,0,0)" stroke="rgb(0,0,0)" stroke-width="1" opacity="0.996078431372549" d="M 102.5 56 L 103 57.5 L 92.5 70 L 82.5 77 L 82 75 Q 91 71.9 97 64.5 L 102.5 56 Z " /><path fill="rgb(0,0,0)" stroke="rgb(0,0,0)" stroke-width="1" opacity="0.996078431372549" d="M 39.5 63 L 40 65.5 L 39 65.5 L 39.5 63 Z " /><path fill="rgb(0,0,0)" stroke="rgb(0,0,0)" stroke-width="1" opacity="0.996078431372549" d="M 38.5 67 L 39 69.5 L 36.5 76 L 36 74.5 L 38.5 67 Z " /><path fill="rgb(0,0,0)" stroke="rgb(0,0,0)" stroke-width="1" opacity="0.996078431372549" d="M 43.5 75 L 44 77.5 L 43 77.5 L 43.5 75 Z " /><path fill="rgb(0,0,0)" stroke="rgb(0,0,0)" stroke-width="1" opacity="0.996078431372549" d="M 80.5 77 L 79.5 79 L 72.5 82 L 73.5 80 L 80.5 77 Z " /><path fill="rgb(0,0,0)" stroke="rgb(0,0,0)" stroke-width="1" opacity="0.996078431372549" d="M 49.5 78 L 57 78.5 L 49.5 79 L 49.5 78 Z " /><path fill="rgb(0,0,0)" stroke="rgb(0,0,0)" stroke-width="1" opacity="0.996078431372549" d="M 34.5 80 L 35 83.5 L 33.5 87 L 33 83.5 L 34.5 80 Z " /><path fill="rgb(0,0,0)" stroke="rgb(0,0,0)" stroke-width="1" opacity="0.996078431372549" d="M 65.5 83 L 68 83.5 L 62.5 85 L 62.5 84 L 65.5 83 Z " /><path fill="rgb(0,0,0)" stroke="rgb(0,0,0)" stroke-width="1" opacity="0.996078431372549" d="M 35.5 87 L 51 87.5 L 35.5 88 L 35.5 87 Z " /><path fill="rgb(0,0,0)" stroke="rgb(0,0,0)" stroke-width="1" opacity="1" d="M 1 1 L 36.5 1 L 39 2 L 40.5 5 L 43 6.5 L 45 11.5 L 45 17.5 L 43 25 L 46.5 24 L 52 25 L 59 1 L 91.5 1 L 101.5 5 L 104 7.5 L 108 14.5 L 101.5 25 L 94.5 30 L 90 31 L 91.5 34 L 99 37.5 Q 98.3 39.8 100.5 39 Q 106.2 42.3 104 53.5 L 92.5 69 L 82 75 Q 83.1 77.7 80.5 77 L 71.5 82 L 54.5 87 L 34 87 L 40 62.5 L 43 56.5 L 43 52 L 40.5 52 L 35 48 L 32 41.5 L 32 36.5 L 33 33 L 28.5 35 L 8 35 L 10 17.5 L 17 5 L 3.5 5 L 1 2.5 L 1 1 Z M 67 7 L 63 8 L 57 31 L 75 29 L 95 22 L 100 17 L 100 14 L 94 9 L 89 8 L 67 7 Z M 27 12 L 22 14 L 21 17 L 21 23 L 31 23 L 34 16 Q 33 11 27 12 Z M 91 44 L 85 46 L 71 47 L 70 48 L 52 48 L 50 53 Q 49 56 52 57 L 76 57 L 97 53 L 100 49 L 100 44 L 91 44 Z M 84 66 L 69 69 L 47 69 Q 43 72 43 78 L 50 79 L 69 77 L 81 72 L 85 69 Q 86 65 84 66 Z " /><path fill="rgb(0,0,0)" stroke="rgb(0,0,0)" stroke-width="1" opacity="0" d="M 37.5 0 L 59 0.5 L 57 1 L 51 24 L 45 23 L 47 13.5 Q 45.5 5 39.5 1 Q 36.5 1.5 37.5 0 Z " /><path fill="rgb(0,0,0)" stroke="rgb(0,0,0)" stroke-width="1" opacity="0" d="M 92.5 0 L 108 0 L 108 9.5 L 107 9.5 L 102.5 4 Q 99.7 0.3 92.5 1 L 92.5 0 Z " /><path fill="rgb(0,0,0)" stroke="rgb(0,0,0)" stroke-width="1" opacity="0" d="M 0.5 4 L 2.5 6 L 14 6 L 9 15.5 L 6 36 L 29.5 36 L 30.5 35 Q 29.5 48 37.5 52 L 42 53.5 L 32 86.5 L 32.5 88 L 0 88 L 0.5 4 Z " /><path fill="rgb(0,0,0)" stroke="rgb(0,0,0)" stroke-width="1" opacity="0" d="M 27.5 13 Q 31.5 12.5 32 15.5 Q 31.8 20.3 28.5 22 Q 21.5 23.5 22 20.5 L 23 16.5 L 25.5 14 L 27.5 13 Z " /><path fill="rgb(0,0,0)" stroke="rgb(0,0,0)" stroke-width="1" opacity="0" d="M 107.5 19 L 108 88 L 54 87.5 Q 83.5 83 99 64.5 Q 105.2 58.2 106 46.5 Q 104.6 38.4 98.5 35 L 93 32.5 L 106 22.5 L 107.5 19 Z " /><path fill="rgb(180,152,53)" stroke="rgb(180,152,53)" stroke-width="1" opacity="0.9686274509803922" d="M 84.5 8 L 88 8.5 L 84.5 9 L 84.5 8 Z " /><path fill="rgb(180,152,53)" stroke="rgb(180,152,53)" stroke-width="1" opacity="0.9686274509803922" d="M 96.5 11 L 97.5 13 L 96.5 11 Z " /><path fill="rgb(180,152,53)" stroke="rgb(180,152,53)" stroke-width="1" opacity="0.9686274509803922" d="M 95.5 19 L 94.5 21 L 95.5 19 Z " /><path fill="rgb(180,152,53)" stroke="rgb(180,152,53)" stroke-width="1" opacity="0.9686274509803922" d="M 70.5 28 L 73 28.5 L 70.5 29 L 70.5 28 Z " /><path fill="rgb(180,152,53)" stroke="rgb(180,152,53)" stroke-width="1" opacity="0.9686274509803922" d="M 62.5 29 L 66 29.5 L 62.5 30 L 62.5 29 Z " /><path fill="rgb(180,152,53)" stroke="rgb(180,152,53)" stroke-width="1" opacity="0.9686274509803922" d="M 98.5 45 L 99 48.5 L 96.5 52 L 97 50.5 L 98.5 45 Z " /><path fill="rgb(180,152,53)" stroke="rgb(180,152,53)" stroke-width="1" opacity="0.9686274509803922" d="M 83.5 46 L 88 46.5 L 83.5 47 L 83.5 46 Z " /><path fill="rgb(180,152,53)" stroke="rgb(180,152,53)" stroke-width="1" opacity="0.9686274509803922" d="M 74.5 47 L 81 47.5 L 74.5 48 L 74.5 47 Z " /><path fill="rgb(180,152,53)" stroke="rgb(180,152,53)" stroke-width="1" opacity="0.9686274509803922" d="M 52 48 L 68 48.5 L 53.5 49 L 52.5 50 L 52 48 Z " /><path fill="rgb(180,152,53)" stroke="rgb(180,152,53)" stroke-width="1" opacity="0.9686274509803922" d="M 87.5 53 L 91 53.5 L 87.5 54 L 87.5 53 Z " /><path fill="rgb(180,152,53)" stroke="rgb(180,152,53)" stroke-width="1" opacity="0.9686274509803922" d="M 79.5 54 L 84 54.5 L 79.5 55 L 79.5 54 Z " /><path fill="rgb(180,152,53)" stroke="rgb(180,152,53)" stroke-width="1" opacity="0.9686274509803922" d="M 67.5 55 L 75 55.5 L 67.5 56 L 67.5 55 Z " /><path fill="rgb(180,152,53)" stroke="rgb(180,152,53)" stroke-width="1" opacity="0.9686274509803922" d="M 82.5 67 Q 84.8 66.3 84 68.5 L 82.5 67 Z " /><path fill="rgb(180,152,53)" stroke="rgb(180,152,53)" stroke-width="1" opacity="0.9686274509803922" d="M 74.5 68 L 81 68.5 L 74.5 69 L 74.5 68 Z " /><path fill="rgb(180,152,53)" stroke="rgb(180,152,53)" stroke-width="1" opacity="0.9686274509803922" d="M 46.5 69 L 67 69.5 L 46.5 70 L 46.5 69 Z " /><path fill="rgb(180,152,53)" stroke="rgb(180,152,53)" stroke-width="1" opacity="0.9686274509803922" d="M 66.5 75 L 70 75.5 L 66.5 76 L 66.5 75 Z " /><path fill="rgb(180,152,53)" stroke="rgb(180,152,53)" stroke-width="1" opacity="0.9686274509803922" d="M 61.5 76 L 65 76.5 L 61.5 77 L 61.5 76 Z " /><path fill="rgb(180,152,53)" stroke="rgb(180,152,53)" stroke-width="1" opacity="0.9686274509803922" d="M 50.5 77 L 57 77.5 L 50.5 78 L 50.5 77 Z " /><path fill="rgb(254,202,8)" stroke="rgb(254,202,8)" stroke-width="1" opacity="0.996078431372549" d="M 97.5 44 L 98 48.5 L 95.5 52 L 78.5 55 L 51 56 L 53.5 49 L 80.5 48 L 97.5 44 Z " /><path fill="rgb(254,202,8)" stroke="rgb(254,202,8)" stroke-width="1" opacity="0.996078431372549" d="M 81.5 68 L 83 68.5 L 70.5 75 L 60.5 77 L 45 77 L 46 70 L 66.5 70 L 67.5 69 L 80.5 69 L 81.5 68 Z " /></svg>